<!DOCTYPE svg PUBLIC "-//W3C//DTD SVG 1.1//EN" "http://www.w3.org/Graphics/SVG/1.1/DTD/svg11.dtd">
<!-- Uploaded to: SVG Repo, www.svgrepo.com, Transformed by: SVG Repo Mixer Tools -->
<svg width="64px" height="64px" viewBox="0 0 400 400" fill="none" xmlns="http://www.w3.org/2000/svg">
<g id="SVGRepo_bgCarrier" stroke-width="0"/>
<g id="SVGRepo_tracerCarrier" stroke-linecap="round" stroke-linejoin="round"/>
<g id="SVGRepo_iconCarrier"> <path d="M240.805 120.6C231.529 111.151 216.615 104.362 203.37 102.696C193.411 101.438 185.219 105.559 179.259 113.566C144.21 160.665 221.822 192.459 216.061 238.909C213.561 259.084 188.045 254.604 176.087 263.215C159.955 274.828 174.75 293.886 153.243 302.222" stroke="#FAEBD7" stroke-opacity="0.9" stroke-width="16" stroke-linecap="round" stroke-linejoin="round"/> <path d="M188.813 175.393C220.737 189.603 271.251 189.337 294.16 159.935" stroke="#FAEBD7" stroke-opacity="0.9" stroke-width="16" stroke-linecap="round" stroke-linejoin="round"/> <path d="M301.003 164.039C333.312 180.572 347.52 204.604 347.52 240.655" stroke="#FAEBD7" stroke-opacity="0.9" stroke-width="16" stroke-linecap="round" stroke-linejoin="round"/> <path d="M346.15 239.287C342.282 219.316 294.78 197.321 298.469 229.931" stroke="#FAEBD7" stroke-opacity="0.9" stroke-width="16" stroke-linecap="round" stroke-linejoin="round"/> <path d="M292.795 229.709C284.303 218.952 250.382 205.891 250.382 228.351" stroke="#FAEBD7" stroke-opacity="0.9" stroke-width="16" stroke-linecap="round" stroke-linejoin="round"/> <path d="M173.767 180.354C142.709 188.063 109.829 179.683 86.2053 159.935" stroke="#FAEBD7" stroke-opacity="0.9" stroke-width="16" stroke-linecap="round" stroke-linejoin="round"/> <path d="M82.0986 159.935C57.4341 165.398 46.804 214.87 54.427 236.551" stroke="#FAEBD7" stroke-opacity="0.9" stroke-width="16" stroke-linecap="round" stroke-linejoin="round"/> <path d="M154.61 222.173C126.719 203.397 127.032 225.092 116.375 230.358C109.634 233.689 102.849 221.5 95.3482 222.173C82.1457 223.357 72.4924 231.621 61.5765 237.919" stroke="#FAEBD7" stroke-opacity="0.9" stroke-width="16" stroke-linecap="round" stroke-linejoin="round"/> <path d="M219.374 97C217.837 102.366 221.52 103.087 224.283 106.577" stroke="#FAEBD7" stroke-opacity="0.9" stroke-width="16" stroke-linecap="round" stroke-linejoin="round"/> </g>
</svg>